<svg width="130" height="83" viewBox="0 0 130 83" fill="none" xmlns="http://www.w3.org/2000/svg">
<path d="M61.2195 83H0.538086V24.7286L30.9571 0L62.0913 26.867L61.9155 39.3253L60.6417 39.3071L60.8094 27.443L30.9339 1.66137L1.8119 25.3349V81.7257H59.9831L60.2124 73.7543L61.4852 73.7907L61.2195 83Z" fill="#FFF3EF"/>
<path d="M16.3319 61.2708H26.179V64.0145H13.0913V46.5569H25.8305V49.3006H16.3319V61.2708ZM16.0834 53.8138H24.7587V56.4827H16.0834V53.8138Z" fill="#FFF3EF"/>
<path d="M29.7944 64.0145V46.5569H33.035V64.0145H29.7944ZM32.6613 59.8994L32.5118 56.0593L41.6355 46.5569H45.3004L37.6969 54.6374L35.9019 56.608L32.6613 59.8994ZM41.9598 64.0145L35.2533 56.0593L37.4222 53.6895L45.7732 64.0145H41.9598Z" fill="#FFF3EF"/>
<path d="M55.5212 64.2641C54.1747 64.2641 52.9241 64.0397 51.7695 63.591C50.6138 63.1423 49.6128 62.5107 48.7653 61.6952C47.9177 60.8807 47.2611 59.9287 46.7954 58.8393C46.3298 57.751 46.0974 56.5656 46.0974 55.2852C46.0974 53.9886 46.3298 52.7951 46.7954 51.7067C47.2601 50.6184 47.9177 49.6705 48.7653 48.864C49.6128 48.0576 50.6098 47.43 51.7563 46.9813C52.9029 46.5326 54.1575 46.3083 55.5212 46.3083C56.8678 46.3083 58.1143 46.5286 59.2608 46.9692C60.4074 47.4098 61.4004 48.0333 62.2398 48.8398C63.0792 49.6462 63.7308 50.5982 64.1965 51.6956C64.6612 52.7931 64.8945 53.9896 64.8945 55.2872C64.8945 56.5848 64.6612 57.7772 64.1965 58.8656C63.7308 59.955 63.0782 60.907 62.2398 61.7215C61.4004 62.536 60.4074 63.1636 59.2608 63.6042C58.1143 64.0428 56.8678 64.2641 55.5212 64.2641ZM55.5212 61.4203C56.4021 61.4203 57.2122 61.2708 57.9517 60.9716C58.6911 60.6725 59.3356 60.2481 59.8841 59.6993C60.4326 59.1506 60.8599 58.5018 61.168 57.754C61.4751 57.0062 61.6297 56.1826 61.6297 55.2852C61.6297 54.3878 61.4802 53.5642 61.1811 52.8164C60.8821 52.0685 60.4538 51.4197 59.8972 50.871C59.3406 50.3223 58.6921 49.8988 57.9527 49.5987C57.2132 49.2996 56.4031 49.15 55.5222 49.15C54.6414 49.15 53.8231 49.2996 53.0665 49.5987C52.3099 49.8978 51.6584 50.3263 51.1098 50.8831C50.5613 51.44 50.129 52.0887 49.8138 52.8285C49.4976 53.5682 49.34 54.3868 49.34 55.2852C49.34 56.1664 49.4976 56.9809 49.8138 57.7287C50.129 58.4765 50.5613 59.1294 51.1098 59.6862C51.6584 60.243 52.3099 60.6715 53.0665 60.9706C53.8221 61.2708 54.6404 61.4203 55.5212 61.4203Z" fill="#FFF3EF"/>
<path d="M76.4123 64.1388C75.1163 64.1388 73.9152 63.9185 72.8101 63.4778C71.705 63.0372 70.7453 62.4178 69.9311 61.6194C69.1169 60.8211 68.4856 59.8863 68.036 58.8141C67.5875 57.7419 67.3633 56.5656 67.3633 55.2852C67.3633 54.0048 67.5875 52.8285 68.036 51.7563C68.4846 50.6841 69.121 49.7483 69.9432 48.9509C70.7655 48.1526 71.7262 47.5341 72.8222 47.0925C73.9192 46.6519 75.1153 46.4316 76.4123 46.4316C77.6417 46.4316 78.7933 46.6307 79.865 47.0298C80.9368 47.429 81.8551 48.0364 82.6198 48.8509L81.8217 49.6735C81.0742 48.9418 80.2469 48.4143 79.3408 48.0899C78.4347 47.7655 77.475 47.6038 76.4618 47.6038C75.3486 47.6038 74.3132 47.7948 73.3576 48.1778C72.402 48.5608 71.5706 49.1005 70.8645 49.7988C70.1584 50.4971 69.6099 51.3116 69.2189 52.2423C68.828 53.1741 68.6331 54.1877 68.6331 55.2852C68.6331 56.3826 68.828 57.3973 69.2189 58.328C69.6089 59.2597 70.1574 60.0743 70.8645 60.7726C71.5706 61.4709 72.402 62.0115 73.3576 62.3935C74.3132 62.7765 75.3476 62.9675 76.4618 62.9675C77.475 62.9675 78.4347 62.8058 79.3408 62.4814C80.2469 62.157 81.0732 61.6214 81.8217 60.8726L82.6198 61.6952C81.8551 62.5097 80.9368 63.1211 79.865 63.5284C78.7923 63.9356 77.6417 64.1388 76.4123 64.1388Z" fill="#FFF3EF"/>
<path d="M88.1534 62.8675H98.9227V64.0145H86.8816V46.5569H98.549V47.7039H88.1534V62.8675ZM88.0039 54.5869H97.4519V55.7096H88.0039V54.5869Z" fill="#FFF3EF"/>
<path d="M103.559 64.0145V46.5569H104.831V62.8675H114.878V64.0145H103.559Z" fill="#FFF3EF"/>
<path d="M118.143 64.0145V46.5569H119.415V62.8675H129.462V64.0145H118.143Z" fill="#FFF3EF"/>
</svg>
